<mxfile host="app.diagrams.net" modified="2024-03-11T01:27:08.385Z" agent="Mozilla/5.0 (Windows NT 10.0; Win64; x64) AppleWebKit/537.36 (KHTML, like Gecko) Chrome/122.0.0.0 Safari/537.36 Edg/122.0.0.0" version="21.3.2" etag="qsPW9rahu2deGrW5BGkm" type="github">
  <diagram name="第 1 页" id="EwFhPcsXTICb-NB31ZWL">
    <mxGraphModel>
      <root>
        <mxCell id="0" />
        <mxCell id="1" parent="0" />
      </root>
    </mxGraphModel>
  </diagram>
</mxfile>
